<?xml version="1.0" encoding="utf-8"?>
<svg version="1.1" id="Layer_1" xmlns="http://www.w3.org/2000/svg" xmlns:xlink="http://www.w3.org/1999/xlink" x="0px" y="0px"
	 viewBox="0 0 100 30" width="100px" height="30px" style="enable-background:new 0 0 100 30;" xml:space="preserve">
<style type="text/css">
	.st0{fill-rule:evenodd;clip-rule:evenodd;fill:url(#SVGID_1_);}
	.st1{fill:#53565A;}
	.st2{opacity:0.7;}
</style>
<linearGradient id="SVGID_1_" gradientUnits="userSpaceOnUse" x1="17.62" y1="27.0113" x2="17.62" y2="5.32" gradientTransform="matrix(1 0 0 -1 0 32)">
	<stop  offset="0" style="stop-color:#97999B"/>
	<stop  offset="0.2" style="stop-color:#97999B"/>
	<stop  offset="0.75" style="stop-color:#53565A"/>
	<stop  offset="0.9944" style="stop-color:#55575A"/>
</linearGradient>
<path class="st0" d="M12.48,12.05c6.03,0,8.97-5.27,16-5.85c2.76-0.23,4.83,0.61,4.9,1.26c0.1,0.93,0.24,1.87,0.24,2.84
	c0,9.05-7.16,16.38-16,16.38s-16-7.34-16-16.38c0-1.81,0.48-3.5,0.81-5.17C2.69,3.82,5.4,12.05,12.48,12.05z"/>
<path class="st1" d="M2.85,4.21c0,0,4.43,3.17,10.05,3.15c4.79-0.01,9.97-3.97,15.43-3.51c5.61,0.48,5,2.46,5,2.46
	s-1.06-1.53-5.36-1.07c-6.51,0.7-8.89,5.66-15.7,5.8C6.61,11.16,2.85,4.21,2.85,4.21z"/>
<g>
	<path class="st1" d="M52.19,27.67h-2.42l-1.27-3.98h-6.05l-1.25,3.98h-2.35l5.44-16.8h2.4L52.19,27.67z M47.81,21.43l-1.21-3.86
		c-0.62-1.98-1-3.27-1.14-3.86c-0.26,1.09-0.63,2.38-1.1,3.89l-1.21,3.84h4.66V21.43z"/>
	<path class="st1" d="M67.27,19.27c0,2.96-0.78,5.26-2.33,6.89l1.02,1.75l-1.86,1.3l-1.02-1.73c-0.71,0.3-1.45,0.46-2.22,0.46
		c-1.93,0-3.48-0.8-4.64-2.4c-1.17-1.6-1.75-3.69-1.75-6.26s0.58-4.66,1.75-6.26s2.71-2.4,4.64-2.4c1.94,0,3.5,0.8,4.67,2.4
		C66.68,14.61,67.27,16.7,67.27,19.27z M64.96,19.27c0-1.9-0.36-3.4-1.07-4.5s-1.72-1.64-3.04-1.64c-1.3,0-2.3,0.55-3.01,1.64
		c-0.71,1.1-1.07,2.6-1.07,4.5c0,1.92,0.36,3.43,1.07,4.54s1.72,1.66,3.01,1.66c0.35,0,0.68-0.04,1.01-0.12l-1.1-1.9l1.86-1.3
		l1.1,1.92C64.54,23.07,64.96,21.47,64.96,19.27z"/>
	<path class="st1" d="M81.87,20.67c0,2.35-0.5,4.15-1.49,5.4s-2.43,1.87-4.32,1.87c-1.86,0-3.27-0.64-4.23-1.91
		c-0.96-1.27-1.45-3.08-1.45-5.41v-9.74h2.27v9.67c0,3.25,1.15,4.87,3.46,4.87c2.33,0,3.5-1.57,3.5-4.7v-9.84h2.27L81.87,20.67
		L81.87,20.67z"/>
	<path class="st1" d="M98.09,27.67h-2.42l-1.27-3.98h-6.05l-1.25,3.98h-2.35l5.44-16.8h2.4L98.09,27.67z M93.71,21.43l-1.21-3.86
		c-0.62-1.98-1-3.27-1.14-3.86c-0.26,1.09-0.63,2.38-1.1,3.89l-1.21,3.84h4.66V21.43z"/>
</g>
<g class="st2">
	<path class="st1" d="M44.36,7.79V0.63h2.7c0.48,0,0.84,0.02,1.09,0.07c0.35,0.06,0.65,0.17,0.88,0.33s0.43,0.39,0.57,0.69
		c0.15,0.3,0.22,0.62,0.22,0.98c0,0.61-0.19,1.12-0.58,1.55s-1.09,0.63-2.1,0.63H45.3v2.91H44.36z M45.31,4.04h1.85
		c0.61,0,1.05-0.11,1.3-0.34s0.39-0.55,0.39-0.96c0-0.3-0.08-0.56-0.23-0.77c-0.15-0.21-0.35-0.35-0.6-0.42
		c-0.16-0.04-0.45-0.06-0.88-0.06h-1.83C45.31,1.49,45.31,4.04,45.31,4.04z"/>
	<path class="st1" d="M50.59,5.2c0-0.96,0.27-1.67,0.8-2.13c0.45-0.38,0.99-0.58,1.63-0.58c0.71,0,1.3,0.23,1.75,0.7
		s0.68,1.11,0.68,1.94c0,0.67-0.1,1.19-0.3,1.57s-0.49,0.68-0.88,0.89c-0.38,0.21-0.8,0.32-1.25,0.32c-0.73,0-1.31-0.23-1.76-0.7
		C50.82,6.74,50.59,6.07,50.59,5.2z M51.5,5.2c0,0.66,0.14,1.16,0.43,1.49s0.65,0.5,1.09,0.5s0.8-0.17,1.09-0.5s0.43-0.84,0.43-1.52
		c0-0.64-0.15-1.13-0.44-1.46c-0.29-0.33-0.65-0.5-1.09-0.5s-0.8,0.16-1.09,0.49S51.5,4.53,51.5,5.2z"/>
	<path class="st1" d="M57.44,7.79L55.85,2.6h0.91l0.83,2.99L57.9,6.7c0.01-0.06,0.1-0.41,0.27-1.07L59,2.59h0.9l0.78,3.01l0.26,0.99
		l0.3-1l0.89-3h0.85l-1.62,5.19h-0.91l-0.83-3.11l-0.2-0.88l-1.05,3.99h-0.93V7.79z"/>
	<path class="st1" d="M67.25,6.12l0.91,0.11c-0.14,0.53-0.41,0.94-0.8,1.24s-0.88,0.44-1.48,0.44c-0.76,0-1.36-0.23-1.8-0.7
		c-0.45-0.47-0.67-1.12-0.67-1.97c0-0.87,0.22-1.55,0.67-2.03s1.03-0.72,1.75-0.72c0.69,0,1.26,0.24,1.7,0.71s0.66,1.14,0.66,1.99
		c0,0.05,0,0.13,0,0.23h-3.87c0.03,0.57,0.19,1.01,0.48,1.31s0.65,0.45,1.08,0.45c0.32,0,0.6-0.08,0.83-0.25S67.12,6.49,67.25,6.12z
		 M64.37,4.7h2.9c-0.04-0.44-0.15-0.76-0.33-0.98c-0.28-0.34-0.64-0.51-1.09-0.51c-0.4,0-0.74,0.14-1.02,0.41
		C64.55,3.89,64.4,4.25,64.37,4.7z"/>
	<path class="st1" d="M69.25,7.79V2.6h0.79v0.79c0.2-0.37,0.39-0.61,0.56-0.73s0.36-0.18,0.56-0.18c0.3,0,0.6,0.09,0.9,0.28
		l-0.3,0.82c-0.21-0.13-0.43-0.19-0.64-0.19c-0.19,0-0.36,0.06-0.52,0.17s-0.26,0.28-0.33,0.48c-0.1,0.31-0.15,0.65-0.15,1.03v2.71
		h-0.87V7.79z"/>
	<path class="st1" d="M76.14,6.12l0.91,0.11c-0.14,0.53-0.41,0.94-0.8,1.24s-0.88,0.44-1.48,0.44c-0.76,0-1.36-0.23-1.8-0.7
		c-0.45-0.47-0.67-1.12-0.67-1.97c0-0.87,0.22-1.55,0.67-2.03S74,2.49,74.72,2.49c0.69,0,1.26,0.24,1.7,0.71s0.66,1.14,0.66,1.99
		c0,0.05,0,0.13,0,0.23h-3.87c0.03,0.57,0.19,1.01,0.48,1.31s0.65,0.45,1.08,0.45c0.32,0,0.6-0.08,0.83-0.25S76.01,6.49,76.14,6.12z
		 M73.26,4.7h2.9C76.12,4.26,76,3.94,75.82,3.72c-0.28-0.34-0.64-0.51-1.09-0.51c-0.4,0-0.74,0.14-1.02,0.41
		C73.44,3.89,73.29,4.25,73.26,4.7z"/>
	<path class="st1" d="M81.52,7.79V7.14c-0.33,0.51-0.81,0.77-1.45,0.77c-0.41,0-0.79-0.11-1.14-0.34s-0.62-0.55-0.81-0.95
		c-0.19-0.41-0.29-0.88-0.29-1.41c0-0.52,0.09-0.99,0.26-1.41s0.43-0.74,0.78-0.97s0.73-0.34,1.16-0.34c0.31,0,0.59,0.07,0.83,0.2
		s0.44,0.3,0.6,0.52V0.63h0.87v7.16H81.52z M78.74,5.2c0,0.66,0.14,1.16,0.42,1.49s0.61,0.49,0.99,0.49s0.71-0.16,0.98-0.47
		c0.27-0.31,0.4-0.79,0.4-1.44c0-0.71-0.14-1.23-0.41-1.56s-0.61-0.5-1.01-0.5c-0.39,0-0.72,0.16-0.98,0.48
		C78.87,4.01,78.74,4.52,78.74,5.2z"/>
	<path class="st1" d="M87.31,7.79h-0.82V0.63h0.88v2.55c0.37-0.47,0.84-0.7,1.42-0.7c0.32,0,0.62,0.06,0.91,0.19
		c0.29,0.13,0.52,0.31,0.7,0.54s0.33,0.51,0.43,0.84s0.16,0.68,0.16,1.05c0,0.89-0.22,1.58-0.66,2.06s-0.97,0.73-1.58,0.73
		s-1.09-0.26-1.44-0.77C87.31,7.12,87.31,7.79,87.31,7.79z M87.3,5.16c0,0.62,0.08,1.07,0.25,1.35c0.28,0.45,0.65,0.68,1.12,0.68
		c0.38,0,0.72-0.17,1-0.5s0.42-0.83,0.42-1.49c0-0.68-0.13-1.18-0.4-1.5c-0.27-0.32-0.59-0.48-0.97-0.48c-0.38,0-0.72,0.17-1,0.5
		S87.3,4.53,87.3,5.16z"/>
	<path class="st1" d="M92.02,9.79l-0.1-0.83c0.19,0.05,0.36,0.08,0.5,0.08c0.2,0,0.35-0.03,0.47-0.1s0.21-0.16,0.29-0.27
		c0.06-0.09,0.14-0.31,0.27-0.65c0.02-0.05,0.04-0.12,0.08-0.21l-1.97-5.2h0.95l1.08,3c0.14,0.38,0.27,0.78,0.38,1.2
		c0.1-0.4,0.22-0.8,0.36-1.18l1.11-3.02h0.88l-1.97,5.27c-0.21,0.57-0.38,0.96-0.49,1.18c-0.16,0.29-0.33,0.5-0.54,0.64
		s-0.44,0.2-0.72,0.2C92.42,9.89,92.23,9.86,92.02,9.79z"/>
</g>
</svg>
