<?xml version="1.0" encoding="utf-8"?>
<svg version="1.1" id="Layer_1" xmlns="http://www.w3.org/2000/svg" xmlns:xlink="http://www.w3.org/1999/xlink" x="0px" y="0px"
	 viewBox="0 0 300 220" width="300" height="220" style="enable-background:new 0 0 300 220;" xml:space="preserve">
<style type="text/css">
	.icon{fill:none;stroke:#97999B;stroke-width:6;stroke-linecap:round;stroke-miterlimit:10; opacity: .4}
	.text{font-family:Arial, Tahoma, Verdana;}
	.text.big{fill:#53565A; font-size:18px;}
	.text.small{fill:#97999B; font-size:12px; dispaly:none}
</style>
<path class="icon" d="M182.7,44.9c-0.5-1.2-1.4-1.9-2.8-1.9h-59.9c-1.3,0-2.3,0.6-2.8,1.9c-0.5,1.2-0.3,2.4,0.6,3.3L141,71.3V94
	c0,0.8,0.3,1.5,0.9,2.1l12,12c0.6,0.6,1.2,0.9,2.1,0.9c0.4,0,0.8-0.1,1.1-0.2c1.2-0.5,1.9-1.4,1.9-2.8V71.2l23.1-23.1
	C183,47.3,183.2,46.2,182.7,44.9z"/>
<text transform="matrix(1 0 0 1 55 155)" class="text big">No matching items found</text>
<text transform="matrix(1 0 0 1 72 185)" class="text small">Please check filter parameters</text>
</svg>
