<?xml version="1.0" encoding="utf-8"?>
<svg version="1.1" id="Layer_1" xmlns="http://www.w3.org/2000/svg" xmlns:xlink="http://www.w3.org/1999/xlink" x="0px" y="0px"
	 viewBox="0 0 24 24" width="24px" height="24px" style="enable-background:new 0 0 24 24;" xml:space="preserve">
<style type="text/css">
	.st0{fill:#97999B;}
</style>
<path class="st0" d="M12.9,1C9.1,1,6,4.1,6,7.9c0,2.3,1.2,4.4,2.9,5.6l-4.6,8.7L5.8,23l4.6-8.7c0.8,0.3,1.6,0.5,2.4,0.5
	c3.8,0,6.9-3.1,6.9-6.9S16.7,1,12.9,1z M12.9,13c-2.8,0-5.1-2.3-5.1-5.1s2.3-5.1,5.1-5.1S18,5,18,7.9S15.7,13,12.9,13z"/>
</svg>
